ffmpeg version 3.4.8-0ubuntu0.2 Copyright (c) 2000-2020 the FFmpeg developers
  built with gcc 7 (Ubuntu 7.5.0-3ubuntu1~18.04)
  configuration: --prefix=/usr --extra-version=0ubuntu0.2 --toolchain=hardened --libdir=/usr/lib/x86_64-linux-gnu --incdir=/usr/include/x86_64-linux-gnu --enable-gpl --disable-stripping --enable-avresample --enable-avisynth --enable-gnutls --enable-ladspa --enable-libass --enable-libbluray --enable-libbs2b --enable-libcaca --enable-libcdio --enable-libflite --enable-libfontconfig --enable-libfreetype --enable-libfribidi --enable-libgme --enable-libgsm --enable-libmp3lame --enable-libmysofa --enable-libopenjpeg --enable-libopenmpt --enable-libopus --enable-libpulse --enable-librubberband --enable-librsvg --enable-libshine --enable-libsnappy --enable-libsoxr --enable-libspeex --enable-libssh --enable-libtheora --enable-libtwolame --enable-libvorbis --enable-libvpx --enable-libwavpack --enable-libwebp --enable-libx265 --enable-libxml2 --enable-libxvid --enable-libzmq --enable-libzvbi --enable-omx --enable-openal --enable-opengl --enable-sdl2 --enable-libdc1394 --enable-libdrm --enable-libiec61883 --enable-chromaprint --enable-frei0r --enable-libopencv --enable-libx264 --enable-shared
  libavutil      55. 78.100 / 55. 78.100
  libavcodec     57.107.100 / 57.107.100
  libavformat    57. 83.100 / 57. 83.100
  libavdevice    57. 10.100 / 57. 10.100
  libavfilter     6.107.100 /  6.107.100
  libavresample   3.  7.  0 /  3.  7.  0
  libswscale      4.  8.100 /  4.  8.100
  libswresample   2.  9.100 /  2.  9.100
  libpostproc    54.  7.100 / 54.  7.100
Input #0, yuv4mpegpipe, from '../.././Samples/Netflix_Boat_4096x2160_60fps_10bit_420.y4m':
  Duration: 00:00:05.00, start: 0.000000, bitrate: 12740201 kb/s
    Stream #0:0: Video: rawvideo (Y3[11][10] / 0xA0B3359), yuv420p10le(progressive), 4096x2160, SAR 1:1 DAR 256:135, 60 fps, 60 tbr, 60 tbn, 60 tbc
Stream mapping:
  Stream #0:0 -> #0:0 (rawvideo (native) -> h264 (libx264))
Press [q] to stop, [?] for help
[libx264 @ 0x562cbec4f240] using SAR=1/1
[libx264 @ 0x562cbec4f240] using cpu capabilities: MMX2 SSE2Fast SSSE3 SSE4.2 AVX FMA3 BMI2 AVX2
[libx264 @ 0x562cbec4f240] profile High, level 5.2
[libx264 @ 0x562cbec4f240] 264 - core 152 r2854 e9a5903 - H.264/MPEG-4 AVC codec - Copyleft 2003-2017 - http://www.videolan.org/x264.html - options: cabac=1 ref=3 deblock=1:0:0 analyse=0x3:0x113 me=hex subme=7 psy=1 psy_rd=1.00:0.00 mixed_ref=1 me_range=16 chroma_me=1 trellis=1 8x8dct=1 cqm=0 deadzone=21,11 fast_pskip=1 chroma_qp_offset=-2 threads=6 lookahead_threads=1 sliced_threads=0 nr=0 decimate=1 interlaced=0 bluray_compat=0 constrained_intra=0 bframes=3 b_pyramid=2 b_adapt=1 b_bias=0 direct=1 weightb=1 open_gop=0 weightp=2 keyint=250 keyint_min=25 scenecut=40 intra_refresh=0 rc_lookahead=40 rc=crf mbtree=1 crf=23.0 qcomp=0.60 qpmin=0 qpmax=69 qpstep=4 ip_ratio=1.40 aq=1:1.00
Output #0, mov, to '/home/aleksandr/Pract/Samples/Netflix_Boat_4096x2160_60fps_10bit_420.y4m_tc/output_std1.mov':
  Metadata:
    encoder         : Lavf57.83.100
    Stream #0:0: Video: h264 (libx264) (avc1 / 0x31637661), yuv420p, 4096x2160 [SAR 1:1 DAR 256:135], q=-1--1, 60 fps, 15360 tbn, 60 tbc
    Metadata:
      encoder         : Lavc57.107.100 libx264
    Side data:
      cpb: bitrate max/min/avg: 0/0/0 buffer size: 0 vbv_delay: -1
frame=    4 fps=0.0 q=0.0 size=       0kB time=00:00:00.00 bitrate=N/A speed=   0x    frame=    7 fps=5.7 q=0.0 size=       0kB time=00:00:00.00 bitrate=N/A speed=   0x    frame=   10 fps=5.2 q=0.0 size=       0kB time=00:00:00.00 bitrate=N/A speed=   0x    frame=   13 fps=4.9 q=0.0 size=       0kB time=00:00:00.00 bitrate=N/A speed=   0x    frame=   15 fps=4.6 q=0.0 size=       0kB time=00:00:00.00 bitrate=N/A speed=   0x    frame=   18 fps=4.3 q=0.0 size=       0kB time=00:00:00.00 bitrate=N/A speed=   0x    frame=   21 fps=4.3 q=0.0 size=       0kB time=00:00:00.00 bitrate=N/A speed=   0x    frame=   24 fps=4.3 q=0.0 size=       0kB time=00:00:00.00 bitrate=N/A speed=   0x    frame=   27 fps=4.3 q=0.0 size=       0kB time=00:00:00.00 bitrate=N/A speed=   0x    frame=   30 fps=4.3 q=0.0 size=       0kB time=00:00:00.00 bitrate=N/A speed=   0x    frame=   32 fps=4.2 q=0.0 size=       0kB time=00:00:00.00 bitrate=N/A speed=   0x    frame=   34 fps=4.2 q=0.0 size=       0kB time=00:00:00.00 bitrate=N/A speed=   0x    frame=   36 fps=4.1 q=0.0 size=       0kB time=00:00:00.00 bitrate=N/A speed=   0x    frame=   39 fps=4.1 q=0.0 size=       0kB time=00:00:00.00 bitrate=N/A speed=   0x    frame=   41 fps=4.1 q=0.0 size=       0kB time=00:00:00.00 bitrate=N/A speed=   0x    frame=   43 fps=4.1 q=0.0 size=       0kB time=00:00:00.00 bitrate=N/A speed=   0x    frame=   46 fps=4.1 q=0.0 size=       0kB time=00:00:00.00 bitrate=N/A speed=   0x    frame=   47 fps=3.7 q=0.0 size=       0kB time=00:00:00.00 bitrate=N/A speed=   0x    frame=   49 fps=3.7 q=0.0 size=       0kB time=00:00:00.00 bitrate=N/A speed=   0x    frame=   52 fps=3.7 q=31.0 size=     768kB time=-00:00:00.01 bitrate=N/A speed=N/A    frame=   55 fps=3.8 q=31.0 size=     768kB time=00:00:00.03 bitrate=188386.8kbits/s speed=0.00228x    frame=   58 fps=3.8 q=31.0 size=    1024kB time=00:00:00.08 bitrate=100588.7kbits/s speed=0.00546x    frame=   61 fps=3.8 q=31.0 size=    1280kB time=00:00:00.13 bitrate=78607.2kbits/s speed=0.00835x    frame=   64 fps=3.9 q=31.0 size=    1536kB time=00:00:00.18 bitrate=68611.4kbits/s speed=0.011x    frame=   67 fps=3.9 q=31.0 size=    1536kB time=00:00:00.23 bitrate=53913.1kbits/s speed=0.0135x    frame=   70 fps=3.9 q=31.0 size=    1792kB time=00:00:00.28 bitrate=51801.2kbits/s speed=0.0159x    frame=   73 fps=3.9 q=31.0 size=    2048kB time=00:00:00.33 bitrate=50322.7kbits/s speed=0.018x    frame=   76 fps=4.0 q=31.0 size=    2304kB time=00:00:00.38 bitrate=49229.9kbits/s speed=0.02x    frame=   79 fps=4.0 q=31.0 size=    2304kB time=00:00:00.43 bitrate=43550.4kbits/s speed=0.0219x    frame=   82 fps=4.0 q=31.0 size=    2560kB time=00:00:00.48 bitrate=43384.1kbits/s speed=0.0237x    frame=   84 fps=4.0 q=31.0 size=    2816kB time=00:00:00.51 bitrate=44644.0kbits/s speed=0.0246x    frame=   87 fps=4.0 q=31.0 size=    2816kB time=00:00:00.56 bitrate=40705.2kbits/s speed=0.0262x    frame=   89 fps=4.0 q=31.0 size=    3072kB time=00:00:00.60 bitrate=41939.0kbits/s speed=0.0271x    frame=   92 fps=4.0 q=31.0 size=    3328kB time=00:00:00.65 bitrate=41939.3kbits/s speed=0.0286x    frame=   95 fps=4.1 q=31.0 size=    3328kB time=00:00:00.70 bitrate=38943.9kbits/s speed=0.0299x    frame=   98 fps=4.1 q=31.0 size=    3584kB time=00:00:00.75 bitrate=39143.8kbits/s speed=0.0312x    frame=  101 fps=4.1 q=31.0 size=    3840kB time=00:00:00.80 bitrate=39318.8kbits/s speed=0.0325x    frame=  104 fps=4.1 q=31.0 size=    4096kB time=00:00:00.85 bitrate=39473.1kbits/s speed=0.0337x    frame=  107 fps=4.1 q=31.0 size=    4096kB time=00:00:00.90 bitrate=37280.3kbits/s speed=0.0348x    frame=  109 fps=4.1 q=31.0 size=    4352kB time=00:00:00.93 bitrate=38195.8kbits/s speed=0.0352x    frame=  112 fps=4.1 q=31.0 size=    4608kB time=00:00:00.98 bitrate=38386.3kbits/s speed=0.0362x    frame=  115 fps=4.1 q=31.0 size=    4608kB time=00:00:01.03 bitrate=36529.0kbits/s speed=0.0372x    frame=  118 fps=4.2 q=31.0 size=    4864kB time=00:00:01.08 bitrate=36778.9kbits/s speed=0.0381x    frame=  121 fps=4.2 q=31.0 size=    5120kB time=00:00:01.13 bitrate=37006.7kbits/s speed=0.039x    frame=  124 fps=4.2 q=31.0 size=    5376kB time=00:00:01.18 bitrate=37215.3kbits/s speed=0.0399x    frame=  127 fps=4.2 q=31.0 size=    5376kB time=00:00:01.23 bitrate=35706.6kbits/s speed=0.0407x    frame=  130 fps=4.2 q=31.0 size=    5632kB time=00:00:01.28 bitrate=35949.6kbits/s speed=0.0415x    frame=  133 fps=4.2 q=31.0 size=    5888kB time=00:00:01.33 bitrate=36174.3kbits/s speed=0.0423x    frame=  136 fps=4.2 q=31.0 size=    6144kB time=00:00:01.38 bitrate=36382.8kbits/s speed=0.043x    frame=  139 fps=4.2 q=31.0 size=    6144kB time=00:00:01.43 bitrate=35113.7kbits/s speed=0.0437x    frame=  142 fps=4.2 q=31.0 size=    6400kB time=00:00:01.48 bitrate=35343.9kbits/s speed=0.0442x    frame=  145 fps=4.2 q=31.0 size=    6656kB time=00:00:01.53 bitrate=35559.1kbits/s speed=0.0448x    frame=  148 fps=4.2 q=31.0 size=    6912kB time=00:00:01.58 bitrate=35760.7kbits/s speed=0.0454x    frame=  149 fps=4.2 q=31.0 size=    6912kB time=00:00:01.60 bitrate=35388.2kbits/s speed=0.0448x    frame=  152 fps=4.2 q=31.0 size=    7168kB time=00:00:01.65 bitrate=35586.8kbits/s speed=0.0451x    frame=  155 fps=4.2 q=31.0 size=    7168kB time=00:00:01.70 bitrate=34540.2kbits/s speed=0.0456x    frame=  158 fps=4.2 q=31.0 size=    7424kB time=00:00:01.75 bitrate=34751.7kbits/s speed=0.0462x    frame=  161 fps=4.2 q=31.0 size=    7680kB time=00:00:01.80 bitrate=34951.4kbits/s speed=0.0467x    frame=  164 fps=4.2 q=31.0 size=    7936kB time=00:00:01.85 bitrate=35140.4kbits/s speed=0.0472x    frame=  167 fps=4.2 q=31.0 size=    8192kB time=00:00:01.90 bitrate=35319.4kbits/s speed=0.0476x    frame=  170 fps=4.2 q=31.0 size=    8448kB time=00:00:01.95 bitrate=35489.2kbits/s speed=0.0481x    frame=  173 fps=4.2 q=31.0 size=    8704kB time=00:00:02.00 bitrate=35650.6kbits/s speed=0.0486x    frame=  176 fps=4.2 q=31.0 size=    8960kB time=00:00:02.05 bitrate=35804.0kbits/s speed=0.049x    frame=  179 fps=4.2 q=31.0 size=    8960kB time=00:00:02.10 bitrate=34951.6kbits/s speed=0.0494x    frame=  182 fps=4.2 q=31.0 size=    9216kB time=00:00:02.15 bitrate=35114.2kbits/s speed=0.0499x    frame=  185 fps=4.2 q=31.0 size=    9472kB time=00:00:02.20 bitrate=35269.4kbits/s speed=0.0503x    frame=  188 fps=4.2 q=31.0 size=    9728kB time=00:00:02.25 bitrate=35417.7kbits/s speed=0.0507x    frame=  191 fps=4.2 q=31.0 size=    9728kB time=00:00:02.30 bitrate=34647.7kbits/s speed=0.051x    frame=  194 fps=4.2 q=31.0 size=    9984kB time=00:00:02.35 bitrate=34803.0kbits/s speed=0.0514x    frame=  197 fps=4.2 q=31.0 size=   10240kB time=00:00:02.40 bitrate=34951.7kbits/s speed=0.0517x    frame=  200 fps=4.3 q=31.0 size=   10496kB time=00:00:02.45 bitrate=35094.4kbits/s speed=0.0521x    frame=  202 fps=4.2 q=31.0 size=   10752kB time=00:00:02.48 bitrate=35467.8kbits/s speed=0.0522x    frame=  205 fps=4.3 q=31.0 size=   11008kB time=00:00:02.53 bitrate=35595.6kbits/s speed=0.0526x    frame=  208 fps=4.3 q=31.0 size=   11008kB time=00:00:02.58 bitrate=34906.7kbits/s speed=0.0529x    frame=  211 fps=4.3 q=31.0 size=   11264kB time=00:00:02.63 bitrate=35040.3kbits/s speed=0.0533x    frame=  214 fps=4.3 q=31.0 size=   11520kB time=00:00:02.68 bitrate=35168.9kbits/s speed=0.0536x    frame=  217 fps=4.3 q=31.0 size=   11776kB time=00:00:02.73 bitrate=35292.8kbits/s speed=0.0539x    frame=  220 fps=4.3 q=31.0 size=   12032kB time=00:00:02.78 bitrate=35412.3kbits/s speed=0.0542x    frame=  223 fps=4.3 q=31.0 size=   12032kB time=00:00:02.83 bitrate=34787.4kbits/s speed=0.0545x    frame=  226 fps=4.3 q=31.0 size=   12288kB time=00:00:02.88 bitrate=34911.4kbits/s speed=0.0547x    frame=  229 fps=4.3 q=31.0 size=   12544kB time=00:00:02.93 bitrate=35031.3kbits/s speed=0.055x    frame=  231 fps=4.3 q=31.0 size=   12544kB time=00:00:02.96 bitrate=34637.7kbits/s speed=0.055x    frame=  234 fps=4.3 q=31.0 size=   13056kB time=00:00:03.01 bitrate=35453.9kbits/s speed=0.0553x    frame=  237 fps=4.3 q=31.0 size=   13312kB time=00:00:03.06 bitrate=35559.7kbits/s speed=0.0555x    frame=  240 fps=4.3 q=31.0 size=   13568kB time=00:00:03.11 bitrate=35662.1kbits/s speed=0.0558x    frame=  243 fps=4.3 q=31.0 size=   13568kB time=00:00:03.16 bitrate=35099.1kbits/s speed=0.056x    frame=  246 fps=4.3 q=31.0 size=   13824kB time=00:00:03.21 bitrate=35205.4kbits/s speed=0.0563x    frame=  249 fps=4.3 q=31.0 size=   14080kB time=00:00:03.26 bitrate=35308.6kbits/s speed=0.0565x    frame=  251 fps=4.3 q=31.0 size=   14080kB time=00:00:03.30 bitrate=34951.9kbits/s speed=0.0566x    frame=  254 fps=4.3 q=31.0 size=   14336kB time=00:00:03.35 bitrate=35056.3kbits/s speed=0.0568x    frame=  257 fps=4.3 q=31.0 size=   14592kB time=00:00:03.40 bitrate=35157.5kbits/s speed=0.0571x    frame=  260 fps=4.3 q=31.0 size=   14848kB time=00:00:03.45 bitrate=35255.9kbits/s speed=0.0573x    frame=  263 fps=4.3 q=31.0 size=   15104kB time=00:00:03.50 bitrate=35351.4kbits/s speed=0.0575x    frame=  266 fps=4.3 q=31.0 size=   15360kB time=00:00:03.55 bitrate=35444.3kbits/s speed=0.0577x    frame=  269 fps=4.3 q=31.0 size=   15616kB time=00:00:03.60 bitrate=35534.5kbits/s speed=0.0575x    frame=  271 fps=4.3 q=31.0 size=   15616kB time=00:00:03.63 bitrate=35208.5kbits/s speed=0.0576x    frame=  274 fps=4.3 q=31.0 size=   15872kB time=00:00:03.68 bitrate=35299.9kbits/s speed=0.0578x    frame=  277 fps=4.3 q=31.0 size=   16128kB time=00:00:03.73 bitrate=35388.9kbits/s speed=0.058x    frame=  280 fps=4.3 q=31.0 size=   16384kB time=00:00:03.78 bitrate=35475.5kbits/s speed=0.0579x    frame=  283 fps=4.3 q=31.0 size=   16384kB time=00:00:03.83 bitrate=35012.8kbits/s speed=0.0581x    frame=  286 fps=4.3 q=31.0 size=   16896kB time=00:00:03.88 bitrate=35642.1kbits/s speed=0.0583x    frame=  289 fps=4.3 q=31.0 size=   17152kB time=00:00:03.93 bitrate=35722.2kbits/s speed=0.0585x    frame=  292 fps=4.3 q=31.0 size=   17408kB time=00:00:03.98 bitrate=35800.2kbits/s speed=0.0587x    frame=  295 fps=4.3 q=31.0 size=   17408kB time=00:00:04.03 bitrate=35356.4kbits/s speed=0.0589x    frame=  296 fps=4.3 q=29.0 size=   17664kB time=00:00:04.05 bitrate=35728.8kbits/s speed=0.0582x    frame=  298 fps=4.2 q=31.0 size=   17664kB time=00:00:04.08 bitrate=35437.1kbits/s speed=0.0582x    frame=  300 fps=4.2 q=31.0 size=   17664kB time=00:00:04.11 bitrate=35150.2kbits/s speed=0.0582x    frame=  300 fps=3.8 q=-1.0 Lsize=   21998kB time=00:00:04.95 bitrate=36404.9kbits/s speed=0.0633x    
video:21993kB audio:0kB subtitle:0kB other streams:0kB global headers:0kB muxing overhead: 0.020780%
[libx264 @ 0x562cbec4f240] frame I:2     Avg QP:24.68  size:795160
[libx264 @ 0x562cbec4f240] frame P:76    Avg QP:26.68  size:189801
[libx264 @ 0x562cbec4f240] frame B:222   Avg QP:31.81  size: 29303
[libx264 @ 0x562cbec4f240] consecutive B-frames:  1.3%  0.0%  0.0% 98.7%
[libx264 @ 0x562cbec4f240] mb I  I16..4:  9.2% 73.0% 17.8%
[libx264 @ 0x562cbec4f240] mb P  I16..4:  0.3%  1.8%  0.4%  P16..4: 35.3% 18.8% 11.8%  0.0%  0.0%    skip:31.7%
[libx264 @ 0x562cbec4f240] mb B  I16..4:  0.0%  0.0%  0.0%  B16..8: 31.5%  2.0%  0.8%  direct: 1.9%  skip:63.9%  L0:37.4% L1:55.2% BI: 7.4%
[libx264 @ 0x562cbec4f240] 8x8 transform intra:73.5% inter:74.1%
[libx264 @ 0x562cbec4f240] coded y,uvDC,uvAC intra: 83.0% 83.1% 55.6% inter: 11.4% 8.7% 0.7%
[libx264 @ 0x562cbec4f240] i16 v,h,dc,p: 63% 20% 13%  5%
[libx264 @ 0x562cbec4f240] i8 v,h,dc,ddl,ddr,vr,hd,vl,hu: 11% 11% 12% 12%  9%  9%  9% 13% 15%
[libx264 @ 0x562cbec4f240] i4 v,h,dc,ddl,ddr,vr,hd,vl,hu: 15% 13% 11% 11% 11% 10%  9% 11% 10%
[libx264 @ 0x562cbec4f240] i8c dc,h,v,p: 62% 16% 14%  8%
[libx264 @ 0x562cbec4f240] Weighted P-Frames: Y:0.0% UV:0.0%
[libx264 @ 0x562cbec4f240] ref P L0: 64.5% 21.7%  8.9%  4.8%
[libx264 @ 0x562cbec4f240] ref B L0: 96.0%  2.8%  1.1%
[libx264 @ 0x562cbec4f240] ref B L1: 99.1%  0.9%
[libx264 @ 0x562cbec4f240] kb/s:36032.68
	Command being timed: "/usr/bin/ffmpeg -i ../.././Samples/Netflix_Boat_4096x2160_60fps_10bit_420.y4m -c:v libx264 -f mov /home/aleksandr/Pract/Samples/Netflix_Boat_4096x2160_60fps_10bit_420.y4m_tc/output_std1.mov"
	User time (seconds): 187.23
	System time (seconds): 5.63
	Percent of CPU this job got: 245%
	Elapsed (wall clock) time (h:mm:ss or m:ss): 1:18.60
	Average shared text size (kbytes): 0
	Average unshared data size (kbytes): 0
	Average stack size (kbytes): 0
	Average total size (kbytes): 0
	Maximum resident set size (kbytes): 1980800
	Average resident set size (kbytes): 0
	Major (requiring I/O) page faults: 0
	Minor (reclaiming a frame) page faults: 182414
	Voluntary context switches: 21579
	Involuntary context switches: 7447
	Swaps: 0
	File system inputs: 15551896
	File system outputs: 44088
	Socket messages sent: 0
	Socket messages received: 0
	Signals delivered: 0
	Page size (bytes): 4096
	Exit status: 0
